<svg width="56" height="56" viewBox="0 0 56 56" fill="none" xmlns="http://www.w3.org/2000/svg">
<g id="Discord">
<rect id="Rectangle 296" x="-1" y="1" width="54" height="54" rx="3" transform="matrix(-1 0 0 1 54 0)" fill="#FCFCFC" stroke="black" stroke-width="2"/>
<path id="Vector" d="M35.8505 17.6069H20.1483C19.3983 17.6072 18.7462 18.237 18.746 19.0708V38.2837L19.578 37.5327L20.9969 36.1929L22.496 34.77L24.1171 33.231H22.5536L22.8231 32.9028C22.1947 32.685 21.6881 32.3855 21.2948 32.0806C20.9396 31.8052 20.6807 31.5299 20.5067 31.3169C20.4197 31.2103 20.353 31.1182 20.3055 31.0483C20.2819 31.0135 20.2634 30.9837 20.2489 30.9604C20.2416 30.9488 20.2354 30.9386 20.2303 30.9302C20.2279 30.9261 20.2254 30.9227 20.2235 30.9194C20.2226 30.9178 20.2214 30.916 20.2206 30.9146L20.2196 30.9126L20.2186 30.9116C20.2184 30.9111 20.2179 30.9097 21.0848 30.4116L20.2186 30.9106L20.0848 30.6792V30.4116C20.0849 28.3455 20.5371 26.4908 20.9813 25.1626C21.2043 24.4959 21.4279 23.9539 21.5975 23.5757C21.6823 23.3867 21.754 23.2381 21.8055 23.1343C21.8313 23.0824 21.8521 23.0411 21.8671 23.0122C21.8746 22.9978 21.8811 22.9865 21.8856 22.978C21.8879 22.9738 21.89 22.97 21.8915 22.9673C21.892 22.9663 21.892 22.9651 21.8925 22.9644L21.8934 22.9624L22.7733 23.437L21.8944 22.9614L21.996 22.7729L22.1659 22.6431L22.5282 22.3823C23.3707 21.8121 24.1799 21.5121 24.8104 21.355C25.1705 21.2653 25.4739 21.2217 25.6942 21.2007C25.8043 21.1902 25.8942 21.1853 25.9608 21.1831C25.9941 21.182 26.0225 21.1813 26.0438 21.1812C26.0541 21.1811 26.0629 21.1811 26.0702 21.1812C26.074 21.1812 26.078 21.1821 26.0809 21.1821H26.0878C26.088 21.1855 26.0876 21.2313 26.0741 21.8501L26.0887 21.1821L26.535 21.1919L26.826 21.5308L26.9901 21.7222L26.993 21.7241C27.6189 21.6692 28.2483 21.6698 28.8739 21.7251L28.9012 21.6919L29.0194 21.5483L29.3104 21.1919L29.7714 21.1821L29.786 21.8296C29.7728 21.2275 29.7721 21.1851 29.7723 21.1821H29.7792C29.7821 21.1821 29.7853 21.1812 29.7889 21.1812C29.7965 21.1811 29.8056 21.1811 29.8163 21.1812C29.8376 21.1813 29.8651 21.182 29.8983 21.1831C29.9648 21.1853 30.0548 21.1902 30.1649 21.2007C30.3852 21.2217 30.6887 21.2652 31.0487 21.355C31.7692 21.5346 32.7235 21.9008 33.6942 22.644L33.8641 22.7749L33.9657 22.9624L33.3778 23.2798L33.3768 23.2808C33.9328 22.9803 33.9639 22.9641 33.9657 22.9634L33.9667 22.9653C33.9671 22.9662 33.968 22.9671 33.9686 22.9683C33.9701 22.971 33.9722 22.9748 33.9745 22.979C33.9789 22.9874 33.9847 22.9989 33.9921 23.0132C34.0071 23.0421 34.0278 23.0833 34.0536 23.1353C34.1052 23.2391 34.1767 23.3883 34.2616 23.5776C34.4311 23.9558 34.655 24.497 34.8778 25.1636C35.3217 26.4915 35.7732 28.3456 35.7733 30.4116V30.6763L35.6425 30.9058L34.7733 30.4116L35.6425 30.9067L35.6415 30.9077L35.6405 30.9097C35.6397 30.9111 35.6386 30.9129 35.6376 30.9146C35.6356 30.9179 35.6332 30.922 35.6307 30.9263C35.6258 30.9347 35.6203 30.945 35.6132 30.9565C35.5987 30.9799 35.5791 31.0093 35.5555 31.0444C35.5084 31.1145 35.4429 31.2071 35.3563 31.314C35.1835 31.5274 34.9261 31.8028 34.5721 32.0786C33.8556 32.637 32.7618 33.1802 31.2313 33.23L30.7333 33.2466L30.4198 32.8579V32.8569L30.4188 32.856C30.4179 32.8549 30.4166 32.8532 30.4149 32.8511C30.4116 32.8469 30.4066 32.8405 30.4003 32.8325C30.3876 32.8167 30.3687 32.794 30.3456 32.7651C30.299 32.707 30.233 32.6244 30.1561 32.5278C30.0344 32.375 29.8843 32.1844 29.7372 31.9966L29.5995 32.0278H29.5985C28.4755 32.2479 27.3209 32.2519 26.1962 32.0415L26.1952 32.0425C26.1687 32.0378 26.1425 32.0308 26.1161 32.0259C25.9699 32.2122 25.823 32.398 25.704 32.5454C25.6279 32.6395 25.5625 32.7196 25.5165 32.7759C25.4936 32.8039 25.4753 32.826 25.4628 32.8413C25.4565 32.849 25.4515 32.8548 25.4481 32.8589C25.4464 32.8609 25.4451 32.8627 25.4442 32.8638L25.4432 32.8647V32.8657L25.0526 32.5435L24.1464 35.7661L23.8817 36.7095H35.8505C36.6008 36.7095 37.2538 36.0788 37.2538 35.2446V19.0708C37.2535 18.2369 36.6006 17.6069 35.8505 17.6069ZM24.6805 32.6958L24.9393 32.4507L24.6884 32.2446L24.6805 32.6958ZM30.1923 27.8608C30.1011 27.8608 30.0349 27.8948 29.9989 27.9282C29.9821 27.9438 29.9744 27.9565 29.9706 27.9653L29.9667 27.98V28.0005C29.9667 28.0172 29.9725 28.0435 30.0057 28.0747C30.04 28.1067 30.1022 28.1392 30.1923 28.1392C30.2728 28.1391 30.3371 28.1086 30.3768 28.0718C30.4149 28.0364 30.4178 28.0097 30.4178 28.0005C30.4178 27.9845 30.4127 27.958 30.3788 27.9263C30.3442 27.8939 30.2823 27.8609 30.1923 27.8608ZM25.8075 27.8608C25.7175 27.8609 25.6556 27.8939 25.621 27.9263C25.5871 27.958 25.5819 27.9845 25.5819 28.0005C25.582 28.0166 25.5872 28.0431 25.621 28.0747C25.6556 28.107 25.7176 28.1391 25.8075 28.1392C25.8878 28.1392 25.9517 28.1092 25.9911 28.0728C26.029 28.0375 26.032 28.0104 26.0321 28.0005C26.0321 27.9838 26.0276 27.9567 25.994 27.9253C25.9598 27.8933 25.8976 27.8608 25.8075 27.8608Z" fill="#151718" stroke="black" stroke-width="2"/>
</g>
</svg>
