<svg width="56" height="56" viewBox="0 0 56 56" fill="none" xmlns="http://www.w3.org/2000/svg">
<g id="GIthub">
<g id="Group 258">
<rect id="Rectangle 6" x="-1" y="1" width="54" height="54" rx="3" transform="matrix(-1 0 0 1 54 0)" fill="#FCFCFC" stroke="black" stroke-width="2"/>
<path id="Vector" d="M21.2672 17.6826L21.1226 17.7012H21.1187C21.0449 17.7125 20.9905 17.7256 20.9517 17.7383V17.7393C20.8851 17.7612 20.8229 17.7939 20.7672 17.8359L20.7134 17.8809C20.6626 17.9288 20.6201 17.9845 20.5875 18.0459L20.5582 18.1094L20.5572 18.1104C20.0392 19.4038 20.0126 20.5294 20.2349 21.4404L20.2906 21.668L20.1519 21.8564C19.4302 22.8341 19.0435 23.9931 19.0435 25.3115C19.0436 27.3795 19.5043 28.8751 20.3179 29.9443C21.1297 31.0111 22.3385 31.7133 23.9517 32.1084L24.4634 32.2334L24.3111 32.7383C24.1845 33.1587 24.1158 33.6381 24.1158 34.166L24.1295 37.2559L24.1334 37.6621L23.7359 37.749C23.5925 37.7804 23.4641 37.8599 23.3726 37.9746C23.3039 38.0607 23.2593 38.163 23.2418 38.2705L23.233 38.3799C23.2344 38.5266 23.2868 38.6683 23.3804 38.7812C23.4508 38.8661 23.5414 38.9316 23.6431 38.9707L23.7486 39.001H23.7496C24.2647 39.1041 24.6759 38.9794 24.9537 38.7549C25.2335 38.5286 25.4101 38.1755 25.4107 37.7559L25.4088 37.249L25.4029 36.4463C25.3972 35.6384 25.3951 34.919 25.3951 34.166C25.3951 33.367 25.5875 32.7022 25.9732 32.3115L26.0533 32.2373C26.4496 31.8946 26.2838 31.2639 25.8072 31.1357L25.7076 31.1172C23.9789 30.9231 22.6024 30.4819 21.6685 29.5312C20.7255 28.5712 20.3229 27.1845 20.3228 25.3115C20.3228 24.1768 20.6747 23.2097 21.3531 22.3965L21.4927 22.2354H21.4937C21.5543 22.169 21.5994 22.0905 21.6275 22.0059L21.65 21.9189C21.6661 21.8303 21.6634 21.7392 21.6422 21.6523L21.6148 21.5674C21.3868 20.9985 21.3007 20.2779 21.481 19.4375L21.5943 18.9082L22.1138 19.0635L22.1246 19.0674C22.6735 19.2239 23.3182 19.528 24.0562 20L24.3795 20.2139C24.437 20.2528 24.5003 20.2823 24.567 20.3008L24.6353 20.3154C24.7043 20.3266 24.7747 20.3269 24.8433 20.3154L24.9117 20.2998L24.9136 20.2988L25.2925 20.2012C26.0523 20.0185 26.8289 19.9144 27.6099 19.8896L28.0005 19.8838C28.926 19.8838 29.846 19.992 30.7183 20.2041L31.0884 20.3008C31.1555 20.3196 31.2252 20.3278 31.2945 20.3242L31.3629 20.3164C31.4314 20.3053 31.4979 20.2832 31.5591 20.251L31.6187 20.2148H31.6197C32.5021 19.6199 33.26 19.2482 33.8912 19.0693L34.4009 18.9248L34.5152 19.4434C34.6769 20.1766 34.6305 20.8185 34.4644 21.3477L34.3863 21.5674C34.3528 21.6511 34.3379 21.7407 34.3414 21.8301L34.3511 21.9189C34.3672 22.0074 34.4015 22.0913 34.4517 22.165L34.5074 22.2354C35.2734 23.0747 35.6783 24.1121 35.6783 25.3115C35.6782 27.1817 35.274 28.5686 34.3336 29.5293C33.5183 30.3619 32.3661 30.8048 30.938 31.0322L30.3101 31.1172H30.3091C29.7917 31.1755 29.5702 31.7852 29.8902 32.1621L29.9615 32.2344L29.9634 32.2354C30.1715 32.4174 30.329 32.7257 30.4332 33.0273C30.5447 33.3501 30.6226 33.746 30.6226 34.166V37.7549C30.6227 38.5002 31.197 39.098 32.0875 39.0264L32.2691 39.0029C32.4149 38.9773 32.5477 38.9024 32.6441 38.79C32.7165 38.7056 32.7656 38.604 32.7867 38.4961L32.7984 38.3867C32.8007 38.2755 32.7736 38.1661 32.7213 38.0693L32.6607 37.9775C32.569 37.8612 32.4392 37.7806 32.2945 37.749L31.9009 37.6631V35.5977L32.4351 35.6338C33.2816 35.6905 33.9504 35.5729 34.4752 35.2939L34.691 35.165L34.692 35.1641L34.9029 35.0088C35.0422 34.8959 35.1805 34.7624 35.3306 34.5986L35.566 34.3291L36.0884 33.6797L36.0904 33.6768L36.2828 33.4434C36.6577 32.9991 36.9805 32.6916 37.3345 32.5156L37.5142 32.4385H37.5152C37.6349 32.3955 37.7384 32.3184 37.813 32.2178L37.8775 32.1094C37.9318 31.9942 37.9507 31.8664 37.9322 31.7422L37.9009 31.6201C37.8436 31.4606 37.7251 31.3301 37.5718 31.2578C37.4569 31.2037 37.3295 31.1858 37.2056 31.2041L37.0836 31.2344C36.4475 31.4628 35.9779 31.8312 35.3599 32.5547L35.0855 32.8867C35.0809 32.8925 35.0756 32.8991 35.0699 32.9062C35.0366 32.948 34.9814 33.0174 34.9195 33.0947L34.5875 33.5068L34.5865 33.5078C34.3667 33.7704 34.1686 33.9748 33.98 34.1006V34.1016C33.5936 34.361 33.0027 34.4095 32.3414 34.3438L31.9175 34.3008L31.8922 33.876C31.8685 33.4825 31.795 33.1002 31.6841 32.749L31.523 32.2393L32.0425 32.1123C33.6552 31.7178 34.8657 31.0146 35.6793 29.9463C36.4947 28.8754 36.9565 27.3785 36.9566 25.3115C36.9566 24.0027 36.5675 22.835 35.8482 21.8564L35.7105 21.6689L35.7652 21.4424C35.9876 20.5302 35.9608 19.4048 35.4429 18.1104C35.4076 18.0224 35.3533 17.9432 35.2838 17.8789C35.2149 17.8153 35.1328 17.7677 35.0435 17.7393L34.8795 17.7021L34.8765 17.7012C34.137 17.5879 32.9716 17.8493 31.3267 18.8799L31.1509 18.9902L30.9478 18.9424C30.1026 18.7448 29.2397 18.6332 28.3726 18.6094L28.0005 18.6045C26.9993 18.6045 26.0053 18.7191 25.0572 18.9424L24.8531 18.9902L24.6754 18.8789C23.1348 17.9058 22.014 17.6164 21.2672 17.6826ZM34.6959 32.5732C34.7526 32.5026 34.6401 32.6427 34.5064 32.8096C34.6187 32.9129 34.7677 32.9922 34.9517 32.9932C35 32.963 35.0559 32.9171 35.067 32.9062C35.0718 32.9013 35.0787 32.8928 35.0816 32.8896C35.0826 32.8886 35.0843 32.8871 35.0855 32.8857L34.6959 32.5732Z" fill="#151718" stroke="black"/>
</g>
</g>
</svg>
