<svg width="56" height="56" viewBox="0 0 56 56" fill="none" xmlns="http://www.w3.org/2000/svg">
<g id="Slack">
<g id="Group 257">
<rect id="Rectangle 7" x="-1" y="1" width="54" height="54" rx="3" transform="matrix(-1 0 0 1 54 0)" fill="#FCFCFC" stroke="black" stroke-width="2"/>
<path id="Vector" d="M30.8485 30.1396C30.7075 30.1396 30.5706 30.1817 30.455 30.2588L30.3466 30.3467C30.2136 30.4796 30.1395 30.6606 30.1395 30.8486V36.5449C30.1395 36.6861 30.1814 36.8228 30.2587 36.9385L30.3466 37.0459C30.4795 37.1789 30.6605 37.2539 30.8485 37.2539C30.9893 37.2538 31.1256 37.2117 31.2411 37.1348L31.3495 37.0459C31.4823 36.913 31.5575 36.7329 31.5575 36.5449V30.8486C31.5575 30.7077 31.5154 30.5707 31.4384 30.4551L31.3495 30.3467C31.2166 30.2139 31.0364 30.1397 30.8485 30.1396ZM25.1512 35.8359C25.0461 35.836 24.9428 35.8597 24.8485 35.9043L24.7577 35.9551C24.6702 36.0136 24.5975 36.0911 24.5438 36.1807L24.4969 36.2734C24.4567 36.3705 24.4382 36.475 24.4432 36.5791L24.4559 36.6836C24.4833 36.8209 24.5513 36.9468 24.6503 37.0459C24.7245 37.1201 24.814 37.1767 24.912 37.2119L25.0135 37.2402C25.1165 37.2607 25.2221 37.2576 25.3231 37.2324L25.4227 37.2002C25.5198 37.16 25.6066 37.0987 25.6766 37.0215L25.7411 36.9385C25.8189 36.8219 25.8602 36.685 25.8602 36.5449V35.8359H25.1512ZM25.1512 30.1396H19.455C19.3138 30.1396 19.1771 30.1816 19.0614 30.2588L18.954 30.3467C18.821 30.4796 18.746 30.6606 18.746 30.8486C18.746 30.9894 18.7882 31.1257 18.8651 31.2412L18.954 31.3496C19.0869 31.4825 19.267 31.5576 19.455 31.5576H25.1512C25.3393 31.5576 25.5202 31.4826 25.6532 31.3496C25.786 31.2167 25.8601 31.0365 25.8602 30.8486C25.8602 30.7076 25.8182 30.5707 25.7411 30.4551L25.6532 30.3467C25.5202 30.2137 25.3393 30.1396 25.1512 30.1396ZM36.5448 30.1396H35.8358V30.8486C35.8359 30.9538 35.8596 31.0571 35.9042 31.1514L35.955 31.2422C36.0134 31.3297 36.091 31.4024 36.1805 31.4561L36.2733 31.5029C36.3704 31.5431 36.4749 31.5617 36.579 31.5566L36.6835 31.5439C36.7864 31.5234 36.883 31.4799 36.9667 31.418L37.0458 31.3496C37.1449 31.2505 37.2128 31.1239 37.2401 30.9863C37.2605 30.8834 37.2575 30.7778 37.2323 30.6768L37.2001 30.5771C37.1599 30.4801 37.0985 30.3933 37.0214 30.3232L36.9384 30.2588C36.8218 30.181 36.6849 30.1396 36.5448 30.1396ZM36.5448 24.4424H30.8485C30.6605 24.4424 30.4795 24.5174 30.3466 24.6504C30.2138 24.7833 30.1396 24.9635 30.1395 25.1514C30.1395 25.2924 30.1815 25.4293 30.2587 25.5449L30.3466 25.6533C30.4795 25.7863 30.6605 25.8604 30.8485 25.8604H36.5448C36.686 25.8604 36.8227 25.8184 36.9384 25.7412L37.0458 25.6533C37.1787 25.5204 37.2538 25.3394 37.2538 25.1514C37.2537 24.9634 37.1787 24.7833 37.0458 24.6504C36.9128 24.5175 36.7328 24.4424 36.5448 24.4424ZM25.1512 18.7461C25.0105 18.7462 24.8741 18.7883 24.7587 18.8652L24.6503 18.9541C24.5174 19.087 24.4423 19.2671 24.4423 19.4551V25.1514C24.4423 25.2923 24.4844 25.4293 24.5614 25.5449L24.6503 25.6533C24.7831 25.7861 24.9634 25.8603 25.1512 25.8604C25.2923 25.8604 25.4292 25.8183 25.5448 25.7412L25.6532 25.6533C25.7862 25.5204 25.8602 25.3394 25.8602 25.1514V19.4551C25.8602 19.3139 25.8183 19.1772 25.7411 19.0615L25.6532 18.9541C25.5536 18.8545 25.427 18.787 25.2909 18.7598L25.1512 18.7461ZM19.455 24.4424C19.3139 24.4424 19.177 24.4844 19.0614 24.5615L18.954 24.6504C18.8211 24.7833 18.7461 24.9635 18.746 25.1514C18.746 25.2924 18.788 25.4293 18.8651 25.5449L18.954 25.6533C19.0869 25.7861 19.2671 25.8604 19.455 25.8604H20.1639V25.1514C20.1639 24.9635 20.0888 24.7833 19.9559 24.6504C19.823 24.5175 19.6429 24.4424 19.455 24.4424ZM30.8485 18.7461C30.7075 18.7461 30.5706 18.7882 30.455 18.8652L30.3466 18.9541C30.2138 19.087 30.1395 19.2672 30.1395 19.4551V20.1641H30.8485C30.9893 20.164 31.1256 20.1218 31.2411 20.0449L31.3495 19.9561C31.4823 19.8231 31.5575 19.643 31.5575 19.4551C31.5575 19.3141 31.5155 19.1772 31.4384 19.0615L31.3495 18.9541C31.2498 18.8544 31.1235 18.787 30.9872 18.7598L30.8485 18.7461Z" fill="#151718" stroke="black" stroke-width="2"/>
</g>
</g>
</svg>
