<svg width="24" height="24" viewBox="0 0 24 24" fill="none" xmlns="http://www.w3.org/2000/svg">
<path d="M10.4082 15.5359L13.5902 12.3539C13.7855 12.1586 13.7855 11.842 13.5902 11.6468L10.4082 8.46481C10.213 8.26954 9.8964 8.26954 9.70113 8.46481C9.50587 8.66007 9.50587 8.97665 9.70113 9.17191L12.5012 11.972C12.5007 11.9814 12.5004 11.9908 12.5004 12.0003C12.5004 12.0027 12.5004 12.0051 12.5005 12.0075C12.5006 12.0146 12.5008 12.0216 12.5012 12.0287L9.70113 14.8288C9.50587 15.024 9.50587 15.3406 9.70113 15.5359C9.8964 15.7311 10.213 15.7311 10.4082 15.5359Z" fill="white"/>
</svg>
